# xmcd CD database file
#
# Track frame offsets:
#	150
#	17848
#	33024
#	48799
#	61837
#	76546
#	91221
#	104509
#	127243
#	143932
#	163612
#
# Disc length: 2314 seconds
#
# Revision: 0
# Processed by: cddbd v1.5.1PL0 Copyright (c) Steve Scherf et al.
# Submitted via: CDex 1.40Release
#
DISCID=8209080b
DTITLE=Yellowbelly - Start All Over
DYEAR=2003
DGENRE=Country
TTITLE0=Feeling Back
TTITLE1=Down the Line
TTITLE2=Carry the Flame
TTITLE3=Dumb, But Slow
TTITLE4=Take it All Away
TTITLE5=Counting the Days
TTITLE6=Start All Over
TTITLE7=She's Got Me
TTITLE8=Memory
TTITLE9=Without a Fight
TTITLE10=Hidden Track
EXTD=YEAR: 2003 ID3G: 2
EXTT0=
EXTT1=
EXTT2=
EXTT3=
EXTT4=
EXTT5=
EXTT6=
EXTT7=
EXTT8=
EXTT9=
EXTT10=
PLAYORDER=
